<?xml version="1.0" encoding="UTF-8"?>
<svg version="1.1" xmlns="http://www.w3.org/2000/svg" width="512" height="512">
<path d="M0 0 C168.96 0 337.92 0 512 0 C512 168.96 512 337.92 512 512 C343.04 512 174.08 512 0 512 C0 343.04 0 174.08 0 0 Z " fill="#080B24" transform="translate(0,0)"/>
<path d="M0 0 C10.93447407 6.89464375 17.75386069 17.16345752 21.37890625 29.5 C21.92657227 32.85963189 22.18424316 36.09339591 22.37890625 39.5 C25.34890625 39.5 28.31890625 39.5 31.37890625 39.5 C31.37890625 71.51 31.37890625 103.52 31.37890625 136.5 C34.455886 133.42302025 37.36406049 130.45835098 40.19140625 127.1875 C40.79597656 126.49011719 41.40054687 125.79273438 42.0234375 125.07421875 C42.47074219 124.55472656 42.91804688 124.03523437 43.37890625 123.5 C47.24265507 125.30308278 50.10895472 127.76391811 53.37890625 130.5 C59.11236933 134.32230872 63.88871811 134.70296326 70.69140625 134.75 C71.42552734 134.770625 72.15964844 134.79125 72.91601562 134.8125 C80.5404503 134.86662199 86.35409491 132.24293658 92.37890625 127.5 C97.90287696 121.68674404 102.37890625 113.67052804 102.37890625 105.5 C101.95222656 105.87511719 101.52554687 106.25023437 101.0859375 106.63671875 C92.81196519 113.40943423 83.14817656 117.44529459 72.359375 116.91796875 C62.44280562 115.52730961 53.98102155 111.96205881 47.4765625 104.2421875 C36.18000852 89.00497516 34.5610213 70.43436127 36.87890625 52.05859375 C39.74605997 32.76829664 47.16464762 15.26332943 62.37890625 2.5 C73.69321722 -5.81830962 84.96887651 -7.82665132 98.78125 -6.06640625 C108.13689383 -4.30881155 113.83151835 -0.16938891 120.37890625 6.5 C120.50265625 5.613125 120.62640625 4.72625 120.75390625 3.8125 C121.37890625 0.5 121.37890625 0.5 123.37890625 -4.5 C132.61890625 -4.5 141.85890625 -4.5 151.37890625 -4.5 C151.37890625 0.7438478 151.1734136 4.15867461 150.00390625 9.0625 C148.70445075 14.82845604 147.76289899 20.54386498 146.9765625 26.3984375 C146.24219694 31.64162103 145.29873447 36.84930351 144.37890625 42.0625 C142.7986066 51.01795683 142.7986066 51.01795683 141.37890625 60 C140.34568819 66.92164668 139.12233116 73.80871036 137.91235352 80.70117188 C136.97425257 86.05178946 136.05602325 91.40434416 135.18237305 96.76586914 C134.70756602 99.66444091 134.2146781 102.55980348 133.72021484 105.45507812 C133.38699046 107.45156413 133.07987983 109.45235316 132.7734375 111.453125 C130.12648222 127.04609793 123.37178022 139.82488814 110.44140625 149.3125 C105.95973836 152.29108543 101.37392435 154.52801891 96.37890625 156.5 C95.55390625 156.87125 94.72890625 157.2425 93.87890625 157.625 C78.12711484 163.13812699 60.05331019 161.81610225 45.06640625 154.6875 C39.92318945 152.06820129 36.17306538 149.09561935 31.37890625 145.5 C31.37890625 195 31.37890625 244.5 31.37890625 295.5 C-53.10109375 295.5 -137.58109375 295.5 -224.62109375 295.5 C-224.64171875 253.445625 -224.66234375 211.39125 -224.68359375 168.0625 C-224.69269775 154.75881104 -224.70180176 141.45512207 -224.71118164 127.74829102 C-224.71569824 111.56628418 -224.71569824 111.56628418 -224.71653748 104.0030365 C-224.71747325 98.69390927 -224.72115506 93.38479215 -224.72666931 88.07566833 C-224.73367813 81.31764682 -224.73559147 74.5596424 -224.73416603 67.80161655 C-224.7344644 65.31261835 -224.736468 62.82361967 -224.74030888 60.33462441 C-224.745233 56.9900777 -224.74410211 53.6455885 -224.74134827 50.30104065 C-224.74426093 49.31204238 -224.7471736 48.32304411 -224.75017452 47.30407619 C-224.74818365 46.41353857 -224.74619278 45.52300095 -224.74414158 44.60547733 C-224.7445213 43.83122758 -224.74490102 43.05697783 -224.74529225 42.25926596 C-224.62109375 40.5 -224.62109375 40.5 -223.62109375 39.5 C-221.79881688 39.40356222 -219.97276015 39.37812629 -218.14793396 39.37974548 C-216.36627838 39.37768349 -216.36627838 39.37768349 -214.54862976 39.37557983 C-212.57634148 39.38097275 -212.57634148 39.38097275 -210.56420898 39.38647461 C-209.17491661 39.38675648 -207.78562408 39.38659875 -206.39633179 39.3860321 C-202.61344086 39.38574412 -198.83058137 39.39164099 -195.04769778 39.39860606 C-191.09853698 39.40483945 -187.14937553 39.40544339 -183.20021057 39.40663147 C-175.716843 39.40974483 -168.23348996 39.41795828 -160.75012881 39.42798096 C-152.23273642 39.43914195 -143.71534335 39.44465251 -135.19794548 39.44967639 C-117.67231981 39.46014089 -100.14670832 39.47774042 -82.62109375 39.5 C-82.42145775 38.57210159 -82.42145775 38.57210159 -82.2177887 37.62545776 C-82.0409404 36.81432526 -81.8640921 36.00319275 -81.68188477 35.16748047 C-81.5075441 34.36325653 -81.33320343 33.55903259 -81.15357971 32.73043823 C-79.00640148 23.73649518 -72.94136413 16.03135996 -66.62109375 9.5 C-65.96109375 9.5 -65.30109375 9.5 -64.62109375 9.5 C-64.29109375 8.51 -63.96109375 7.52 -63.62109375 6.5 C-57.42150834 1.00201377 -50.47639815 -2.13556458 -42.62109375 -4.5 C-41.51507813 -4.85835937 -40.4090625 -5.21671875 -39.26953125 -5.5859375 C-26.17330322 -8.86700534 -11.76770984 -6.34663003 0 0 Z " fill="#0C1760" transform="translate(224.62109375,216.5)"/>
<path d="M0 0 C84.48 0 168.96 0 256 0 C256 42.24 256 84.48 256 128 C171.52 128.33 87.04 128.66 0 129 C0 86.43 0 43.86 0 0 Z " fill="#000000" transform="translate(0,0)"/>
<path d="M0 0 C42.24 0 84.48 0 128 0 C128 84.48 128 168.96 128 256 C85.76 256 43.52 256 0 256 C0 171.52 0 87.04 0 0 Z " fill="#0826EC" transform="translate(384,256)"/>
<path d="M0 0 C84.48 0 168.96 0 256 0 C256 42.24 256 84.48 256 128 C171.52 128 87.04 128 0 128 C0 85.76 0 43.52 0 0 Z " fill="#060B2F" transform="translate(256,0)"/>
<path d="M0 0 C42.24 0 84.48 0 128 0 C128 42.24 128 84.48 128 128 C85.76 128 43.52 128 0 128 C0 85.76 0 43.52 0 0 Z " fill="#000000" transform="translate(256,384)"/>
<path d="M0 0 C42.24 0 84.48 0 128 0 C128 42.24 128 84.48 128 128 C85.76 128 43.52 128 0 128 C0 85.76 0 43.52 0 0 Z " fill="#000000" transform="translate(0,384)"/>
<path d="M0 0 C42.24 0 84.48 0 128 0 C128 42.24 128 84.48 128 128 C85.76 128 43.52 128 0 128 C0 85.76 0 43.52 0 0 Z " fill="#000000" transform="translate(384,128)"/>
<path d="M0 0 C42.24 0 84.48 0 128 0 C128 42.24 128 84.48 128 128 C85.76 128 43.52 128 0 128 C0 85.76 0 43.52 0 0 Z " fill="#0F1644" transform="translate(256,0)"/>
<path d="M0 0 C3.34197071 2.55785137 6.34361991 5.34732963 9.2890625 8.34765625 C9.4746875 7.01734375 9.4746875 7.01734375 9.6640625 5.66015625 C10.2890625 2.34765625 10.2890625 2.34765625 12.2890625 -2.65234375 C21.5290625 -2.65234375 30.7690625 -2.65234375 40.2890625 -2.65234375 C40.2890625 2.59150405 40.08356985 6.00633086 38.9140625 10.91015625 C37.614607 16.67611229 36.67305524 22.39152123 35.88671875 28.24609375 C35.15235319 33.48927728 34.20889072 38.69695976 33.2890625 43.91015625 C31.70876285 52.86561308 31.70876285 52.86561308 30.2890625 61.84765625 C29.25584444 68.76930293 28.03248741 75.65636661 26.82250977 82.54882812 C25.88440882 87.89944571 24.9661795 93.25200041 24.0925293 98.61352539 C23.61772227 101.51209716 23.12483435 104.40745973 22.63037109 107.30273438 C22.29714671 109.29922038 21.99003608 111.30000941 21.68359375 113.30078125 C19.03663847 128.89375418 12.28193647 141.67254439 -0.6484375 151.16015625 C-5.13010539 154.13874168 -9.7159194 156.37567516 -14.7109375 158.34765625 C-15.5359375 158.71890625 -16.3609375 159.09015625 -17.2109375 159.47265625 C-32.92367566 164.9721146 -50.85933186 163.60204384 -65.8984375 156.72265625 C-72.00410554 153.50315619 -76.84188287 149.19516639 -81.7109375 144.34765625 C-80.17567623 139.26574712 -77.03724092 135.92287739 -73.5859375 132.03515625 C-73.02261719 131.38998047 -72.45929688 130.74480469 -71.87890625 130.08007812 C-70.49552242 128.49739324 -69.10402705 126.92180484 -67.7109375 125.34765625 C-63.84718868 127.15073903 -60.98088903 129.61157436 -57.7109375 132.34765625 C-51.97747442 136.16996497 -47.20112564 136.55061951 -40.3984375 136.59765625 C-39.66431641 136.61828125 -38.93019531 136.63890625 -38.17382812 136.66015625 C-30.54939345 136.71427824 -24.73574884 134.09059283 -18.7109375 129.34765625 C-13.18696679 123.53440029 -8.7109375 115.51818429 -8.7109375 107.34765625 C-9.13761719 107.72277344 -9.56429687 108.09789062 -10.00390625 108.484375 C-18.27787856 115.25709048 -27.94166719 119.29295084 -38.73046875 118.765625 C-48.64703813 117.37496586 -57.1088222 113.80971506 -63.61328125 106.08984375 C-74.90983523 90.85263141 -76.52882245 72.28201752 -74.2109375 53.90625 C-71.34378378 34.61595289 -63.92519613 17.11098568 -48.7109375 4.34765625 C-35.13127433 -5.63614596 -15.09288849 -9.19926777 0 0 Z " fill="#FCFCFC" transform="translate(335.7109375,214.65234375)"/>
<path d="M0 0 C10.90913256 6.87866486 17.79024164 17.16971648 21.37890625 29.5 C24.42749701 48.81442701 23.30560493 71.29918181 12.16015625 88.0078125 C8.55910853 92.89323391 4.72592577 97.26552468 0.37890625 101.5 C-0.14832031 102.02464844 -0.67554688 102.54929687 -1.21875 103.08984375 C-12.04042633 113.04578598 -26.96116705 117.30861765 -41.48828125 116.84375 C-54.74601378 115.38903621 -66.28341487 111.02265167 -74.99609375 100.6875 C-86.56938618 85.10624359 -88.43862301 67.73950771 -85.87109375 48.8125 C-83.23920487 33.79416903 -77.28617305 20.52128038 -66.62109375 9.5 C-65.96109375 9.5 -65.30109375 9.5 -64.62109375 9.5 C-64.29109375 8.51 -63.96109375 7.52 -63.62109375 6.5 C-57.42150834 1.00201377 -50.47639815 -2.13556458 -42.62109375 -4.5 C-41.51507813 -4.85835937 -40.4090625 -5.21671875 -39.26953125 -5.5859375 C-26.17330322 -8.86700534 -11.76770984 -6.34663003 0 0 Z " fill="#FCFCFC" transform="translate(224.62109375,216.5)"/>
<path d="M0 0 C4.10584607 2.9767384 7.82601984 7.20414054 9.11450195 12.19067383 C9.76589508 16.62088966 9.68450586 21.02975106 9.6875 25.5 C9.69974609 26.44294922 9.71199219 27.38589844 9.72460938 28.35742188 C9.75211567 41.69797334 6.69678035 53.78560646 -2.5 63.8125 C-8.70709324 69.23865743 -13.78777181 70.14357137 -21.81640625 70.015625 C-26.37160655 69.67083546 -29.03989578 68.37246984 -32.15625 65.04296875 C-39.96259116 55.41392058 -38.2522277 41.19174531 -37.19140625 29.375 C-35.45240751 18.54088396 -30.70639693 9.29690756 -22.37890625 2.109375 C-15.7968152 -2.43377309 -7.41053157 -2.5142875 0 0 Z " fill="#0E1857" transform="translate(206.5,237.1875)"/>
<path d="M0 0 C3.3573854 2.78591554 5.37816047 4.66987352 6 9 C5.41653844 15.39270924 4.16371055 21.67893524 2.49609375 27.87109375 C1.86377946 30.58456846 1.46776562 33.30602391 1.0625 36.0625 C0.89234375 37.16851562 0.7221875 38.27453125 0.546875 39.4140625 C0.16365125 41.9269154 -0.19921935 44.44291731 -0.546875 46.9609375 C-2.26286825 58.15522973 -2.26286825 58.15522973 -6.375 61.75 C-8.234375 62.99609375 -8.234375 62.99609375 -10 64 C-10.86625 64.598125 -11.7325 65.19625 -12.625 65.8125 C-18.1605513 68.58027565 -24.95382739 69.00628607 -31 68 C-36.0158019 65.38127528 -38.75107607 62.09474108 -40.703125 56.83984375 C-42.19281793 52.00180844 -42.38128187 47.52973666 -42.25 42.5 C-42.24484375 41.70980469 -42.2396875 40.91960937 -42.234375 40.10546875 C-42.03748777 25.06820631 -38.72610863 13.14756673 -28 2 C-20.23590054 -4.69809038 -8.82306622 -4.94091709 0 0 Z " fill="#070E39" transform="translate(334,239)"/>
<path d="M0 0 C3.75345589 2.72125552 5.95287072 5.99180609 8.5 9.8125 C8.995 14.2675 8.995 14.2675 9.5 18.8125 C-4.69 18.8125 -18.88 18.8125 -33.5 18.8125 C-31.84356544 10.53032721 -27.04342774 5.79955716 -20.33203125 0.94140625 C-14.50626722 -2.64845687 -6.26424195 -2.1253678 0 0 Z " fill="#0A0F2B" transform="translate(206.5,237.1875)"/>
</svg>
